<?xml version="1.0" standalone="no"?>
<!DOCTYPE svg PUBLIC "-//W3C//DTD SVG 20010904//EN"
 "http://www.w3.org/TR/2001/REC-SVG-20010904/DTD/svg10.dtd">
<svg version="1.0" xmlns="http://www.w3.org/2000/svg"
 width="310.000000pt" height="310.000000pt" viewBox="0 0 310.000000 310.000000"
 preserveAspectRatio="xMidYMid meet">
<metadata>
Created by potrace 1.11, written by Peter Selinger 2001-2013
</metadata>
<g transform="translate(0.000000,310.000000) scale(0.100000,-0.100000)"
fill="#000000" stroke="none">
<path d="M2 2558 l3 -543 198 0 197 0 187 187 188 188 226 -226 227 -226 158
198 c88 109 166 208 176 219 9 11 74 92 144 180 69 88 130 164 134 168 4 5
150 -133 324 -307 l316 -316 123 123 123 122 185 0 184 0 3 388 2 387 -1550 0
-1550 0 2 -542z"/>
<path d="M1562 1860 c-167 -209 -306 -380 -310 -380 -4 0 -113 106 -242 235
l-235 235 -122 -122 -123 -123 -263 0 -262 0 -3 -853 -2 -852 1550 0 1550 0
-2 1007 -3 1008 -121 0 -120 -1 -187 -187 -187 -187 -300 300 c-165 165 -303
300 -308 300 -4 0 -143 -171 -310 -380z m-175 -784 c4 -4 8 -178 8 -387 l0
-379 -155 0 -155 0 1 388 c1 213 2 387 3 387 14 5 292 -3 298 -9z m1244 4 c1
-3 2 -177 3 -388 l1 -382 -155 2 -155 3 -1 375 c0 206 1 380 3 385 3 11 302
15 304 5z m-1860 -310 c4 -15 5 -437 1 -447 -3 -10 -43 -13 -156 -13 l-151 0
0 228 c-1 125 2 229 6 232 9 7 299 7 300 0z m1239 1 c3 0 5 -104 5 -231 l0
-230 -152 0 c-115 0 -153 3 -154 13 -5 50 -3 443 2 447 6 4 282 5 299 1z"/>
</g>
</svg>
