<?xml version="1.0" standalone="no"?>
<!DOCTYPE svg PUBLIC "-//W3C//DTD SVG 20010904//EN"
 "http://www.w3.org/TR/2001/REC-SVG-20010904/DTD/svg10.dtd">
<svg version="1.0" xmlns="http://www.w3.org/2000/svg"
 width="1600.000000pt" height="1600.000000pt" viewBox="0 0 1600.000000 1600.000000"
 preserveAspectRatio="xMidYMid meet">
<metadata>
Created by potrace 1.11, written by Peter Selinger 2001-2013
</metadata>
<g transform="translate(0.000000,1600.000000) scale(0.100000,-0.100000)"
fill="#000000" stroke="none">
<path d="M7716 12793 c-1 -1 -22 -5 -47 -7 -24 -3 -61 -9 -81 -14 -21 -6 -38
-8 -38 -5 0 3 -7 0 -15 -7 -8 -7 -15 -10 -15 -6 0 4 -14 -1 -30 -9 -17 -9 -35
-13 -40 -10 -6 3 -10 1 -10 -5 0 -6 -4 -8 -10 -5 -5 3 -10 1 -10 -5 0 -6 -4
-8 -10 -5 -5 3 -10 1 -10 -4 0 -6 -3 -10 -7 -9 -15 4 -53 -13 -53 -23 0 -6 -4
-7 -10 -4 -5 3 -10 1 -10 -5 0 -6 -4 -8 -10 -5 -5 3 -10 1 -10 -4 0 -6 -7 -11
-15 -11 -8 0 -15 -4 -15 -10 0 -5 -5 -10 -11 -10 -7 0 -18 -8 -26 -17 -9 -11
-12 -12 -7 -3 3 8 -8 -1 -26 -20 -18 -19 -26 -26 -19 -15 7 11 -16 -9 -52 -45
-36 -36 -64 -68 -63 -71 2 -3 -6 -12 -17 -19 -10 -8 -19 -20 -19 -28 0 -7 -6
-15 -14 -18 -8 -3 -20 -19 -26 -35 -7 -16 -16 -26 -21 -23 -5 3 -6 -1 -4 -9 3
-7 -3 -21 -14 -31 -11 -10 -18 -23 -15 -27 3 -5 0 -9 -6 -9 -6 0 -9 -4 -5 -9
3 -5 -2 -17 -11 -25 -8 -9 -12 -16 -8 -16 3 0 1 -7 -6 -15 -7 -8 -9 -15 -5
-15 4 0 2 -7 -5 -15 -7 -8 -9 -15 -5 -15 4 0 3 -6 -3 -12 -6 -7 -11 -16 -11
-20 -1 -5 -1 -9 -2 -10 -3 -12 -14 -65 -24 -118 -9 -44 -9 -202 -2 -255 14
-92 22 -128 37 -154 6 -12 8 -21 5 -21 -3 0 1 -13 9 -29 9 -16 12 -31 9 -35
-4 -3 -1 -6 6 -6 7 0 9 -4 6 -10 -3 -5 -1 -10 5 -10 6 0 8 -4 5 -10 -3 -5 -1
-10 5 -10 7 0 9 -7 6 -16 -3 -8 -2 -12 4 -9 6 3 10 -3 10 -14 0 -12 4 -21 9
-21 5 0 12 -8 16 -19 3 -10 14 -29 25 -41 11 -12 17 -27 13 -33 -3 -5 -2 -8 3
-5 5 3 15 0 22 -8 7 -8 9 -14 5 -14 -4 0 0 -5 10 -11 9 -6 14 -15 11 -21 -4
-7 -2 -8 4 -4 7 4 16 -3 21 -17 6 -14 16 -29 23 -33 9 -5 8 -2 -2 12 -14 18
-14 18 3 5 9 -7 17 -20 17 -28 0 -8 4 -12 8 -9 5 3 16 -6 26 -20 11 -13 25
-24 33 -24 7 0 16 -7 19 -15 4 -8 11 -15 18 -15 6 0 18 -9 26 -19 7 -11 17
-18 21 -15 4 2 14 -2 22 -10 8 -8 17 -12 21 -9 3 4 6 0 6 -7 0 -7 3 -10 7 -7
3 4 12 -1 20 -11 8 -9 12 -11 8 -4 -9 17 1 15 20 -5 15 -14 22 -15 59 -4 22 7
49 13 58 14 9 1 14 6 11 11 -4 5 1 7 10 3 10 -3 17 -2 17 4 0 6 4 8 9 4 5 -3
13 0 16 6 4 5 13 8 21 5 8 -3 14 0 14 6 0 6 3 9 6 5 4 -3 22 0 41 8 19 8 40
12 46 8 6 -4 7 -1 2 7 -6 10 -4 12 8 7 10 -3 17 -2 17 4 0 6 4 8 9 4 5 -3 12
-1 16 5 4 6 11 8 16 5 5 -4 9 -1 9 5 0 7 6 10 13 7 7 -3 21 1 31 8 15 12 16
17 5 37 -7 13 -13 27 -14 31 0 4 -6 12 -14 16 -7 5 -10 14 -7 20 4 6 2 11 -3
11 -6 0 -10 3 -9 8 1 4 -3 17 -10 28 -6 12 -8 24 -5 28 3 3 1 6 -6 6 -7 0 -10
4 -6 9 3 5 1 12 -5 16 -6 4 -8 11 -5 16 4 5 3 15 -2 22 -4 6 -8 15 -9 20 -1 4
-2 8 -4 10 -3 3 -16 60 -26 112 -9 44 -12 60 -14 60 -3 0 -11 42 -28 143 -12
70 -5 317 8 317 3 0 10 56 11 77 0 10 5 20 10 23 5 4 7 11 3 16 -3 5 0 16 6
24 7 8 10 15 7 15 -3 0 0 20 7 45 8 25 12 45 9 45 -3 0 0 6 6 13 6 8 8 17 4
20 -3 4 -1 13 5 20 7 8 9 17 5 20 -3 4 -1 7 6 7 7 0 10 4 7 8 -3 5 1 19 8 33
7 13 11 30 8 37 -2 6 1 12 8 12 6 0 9 4 6 9 -3 5 1 11 9 15 8 3 12 12 9 19 -3
8 2 21 10 30 8 8 12 17 9 21 -4 3 -1 6 5 6 7 0 12 7 12 15 0 8 5 15 12 15 6 0
9 3 5 6 -5 6 0 15 31 49 7 8 10 15 6 15 -4 0 3 8 14 19 12 10 19 21 15 25 -3
3 -1 6 5 6 7 0 12 5 12 11 0 7 11 22 26 35 19 18 21 24 10 25 -18 2 -35 5 -38
9 -8 6 -206 19 -212 13z"/>
<path d="M9010 12793 c-70 -9 -151 -26 -205 -44 -80 -27 -185 -77 -185 -89 0
-6 -3 -9 -7 -8 -14 4 -68 -30 -82 -51 -8 -11 -18 -18 -22 -15 -4 2 -16 -7 -27
-21 -11 -14 -24 -25 -29 -25 -12 0 -79 -82 -75 -93 1 -5 -2 -6 -7 -3 -17 11
-168 -244 -156 -264 3 -4 1 -10 -5 -12 -5 -1 -11 -14 -14 -28 -2 -14 -5 -25
-6 -25 -3 0 -9 -28 -24 -101 -15 -70 -16 -236 -2 -319 8 -45 35 -145 45 -160
3 -5 6 -12 6 -15 0 -15 39 -90 46 -90 5 0 6 -6 3 -14 -3 -7 2 -20 10 -29 9 -9
16 -19 16 -22 0 -14 104 -141 158 -193 29 -29 73 -65 95 -80 23 -15 44 -29 47
-32 14 -16 98 -58 104 -53 3 3 6 2 6 -4 0 -19 39 -21 90 -5 28 9 50 19 50 23
0 4 10 5 22 1 14 -3 19 -1 14 6 -5 8 -2 10 8 6 9 -3 16 -1 16 6 0 6 4 9 8 6 9
-5 60 11 194 60 l66 25 -21 40 c-11 21 -25 39 -29 39 -5 0 -6 4 -3 10 3 5 -1
22 -9 37 -19 34 -39 96 -61 188 -9 39 -19 77 -22 85 -3 8 -7 26 -9 40 -2 14
-8 43 -13 65 -32 127 -35 286 -7 410 43 190 61 262 82 320 13 39 26 75 27 80
2 6 15 33 30 61 14 28 23 55 19 60 -4 5 -3 6 2 2 8 -7 50 46 44 55 -1 1 10 15
25 31 15 16 24 32 21 37 -3 5 2 9 10 9 14 0 21 12 14 24 -2 2 8 13 22 24 l25
20 -44 12 c-41 11 -209 19 -261 13z"/>
<path d="M10315 12794 c-11 -3 -47 -9 -80 -16 -98 -18 -258 -83 -306 -124 -8
-8 -19 -14 -23 -14 -13 0 -107 -80 -164 -139 -106 -110 -181 -242 -229 -399
-21 -71 -26 -111 -29 -222 -4 -177 13 -263 82 -417 112 -249 350 -451 615
-522 100 -27 138 -32 250 -32 364 0 701 221 858 564 98 213 106 484 21 710
-107 284 -362 511 -660 587 -80 21 -280 35 -335 24z"/>
<path d="M6380 12784 c-233 -28 -435 -128 -590 -290 -124 -130 -197 -258 -241
-424 -29 -109 -32 -308 -6 -414 65 -260 225 -475 457 -612 41 -24 83 -44 92
-44 19 0 358 114 389 131 17 9 16 14 -16 77 -40 81 -71 183 -115 382 -30 137
-32 153 -27 295 4 121 11 175 36 280 61 253 105 358 214 510 l65 90 -32 7
c-44 9 -184 17 -226 12z"/>
<path d="M9635 10738 c-77 -9 -230 -49 -291 -74 -37 -16 -409 -144 -1059 -364
-898 -305 -1054 -359 -1095 -380 -69 -35 -160 -134 -202 -220 -40 -81 -53
-130 -62 -230 -4 -36 -8 -83 -11 -105 -2 -22 -7 -61 -10 -87 -3 -27 -7 -69
-10 -95 -3 -27 -8 -66 -10 -88 -3 -22 -7 -67 -10 -100 -3 -33 -8 -76 -10 -95
-11 -86 -15 -122 -25 -225 -6 -60 -12 -126 -15 -145 -6 -55 -25 -221 -30 -265
-7 -63 -16 -147 -20 -180 -14 -119 -16 -208 -5 -261 34 -168 178 -326 351
-385 158 -53 387 14 493 145 69 85 85 133 101 311 4 39 8 86 10 105 6 50 25
236 31 295 2 28 6 66 9 85 2 19 7 64 10 100 3 36 10 101 15 145 5 44 12 112
15 150 3 39 8 81 10 95 2 14 7 59 11 100 4 41 8 84 10 95 1 11 3 23 3 27 1 8
761 262 767 255 3 -3 -185 -456 -226 -542 -32 -68 -151 -372 -168 -430 -47
-160 -65 -294 -64 -473 2 -221 54 -457 142 -649 11 -24 20 -46 20 -51 0 -7
-81 -200 -125 -297 -8 -16 -118 -273 -245 -570 -509 -1184 -701 -1631 -710
-1650 -63 -133 -267 -626 -280 -675 -40 -155 -18 -322 63 -475 38 -70 142
-180 209 -218 43 -25 52 -27 102 -19 29 5 64 8 77 6 171 -15 269 -15 334 0
113 27 191 70 270 150 80 81 60 42 308 606 455 1031 811 1836 817 1842 5 7
106 -167 254 -436 21 -39 116 -210 211 -381 251 -451 463 -837 629 -1145 25
-47 85 -161 132 -255 108 -213 166 -289 284 -369 181 -125 354 -145 561 -65
201 77 338 232 398 449 28 98 24 248 -8 339 -18 53 -113 234 -439 841 -19 36
-54 99 -77 140 -23 41 -63 116 -90 165 -26 50 -83 153 -125 230 -43 77 -91
165 -107 195 -16 30 -41 75 -55 100 -14 25 -61 110 -105 190 -172 311 -489
874 -519 922 -13 21 -24 39 -24 42 0 2 -61 108 -136 236 l-136 232 73 162 c39
88 84 188 100 221 15 33 51 112 79 175 28 63 60 133 70 155 10 22 75 166 145
320 69 154 129 283 134 288 6 6 189 -311 232 -403 24 -51 78 -100 156 -142 53
-28 646 -263 1018 -403 33 -13 132 -51 219 -85 298 -116 380 -130 506 -91 135
42 245 144 310 285 44 98 20 303 -52 439 -43 80 -138 176 -208 210 -44 21
-698 266 -1145 428 -44 16 -83 33 -86 37 -6 6 -82 142 -246 442 -16 30 -83
152 -148 270 -65 118 -131 240 -148 270 -134 247 -195 350 -225 384 -18 21
-40 52 -47 70 -14 32 -130 150 -200 203 -181 137 -437 202 -680 171z"/>
<path d="M6730 10220 c-8 -5 -43 -17 -77 -26 -35 -10 -63 -22 -63 -28 0 -5 -3
-7 -6 -4 -5 5 -175 -47 -224 -69 -8 -3 -18 -5 -22 -5 -4 1 -33 -9 -63 -23 -30
-13 -58 -24 -60 -24 -20 1 -65 -14 -65 -22 0 -6 -4 -8 -8 -5 -11 7 -258 -80
-298 -105 -19 -11 -34 -26 -34 -31 0 -6 -3 -9 -6 -5 -11 11 -122 -116 -117
-135 2 -4 -1 -8 -7 -8 -19 0 -69 -136 -75 -204 -2 -22 -6 -59 -9 -81 -3 -22
-8 -67 -11 -100 -3 -33 -7 -71 -9 -85 -3 -14 -7 -53 -10 -88 -3 -34 -8 -77
-11 -95 -3 -17 -8 -61 -10 -97 -2 -36 -5 -65 -5 -65 -2 0 -6 -34 -14 -120 -3
-38 -8 -81 -10 -95 -3 -14 -7 -54 -11 -90 -3 -36 -8 -78 -10 -95 -2 -16 -7
-59 -10 -95 -4 -36 -8 -76 -10 -90 -1 -14 -6 -52 -9 -85 -4 -33 -9 -78 -12
-101 -31 -268 -27 -323 33 -443 30 -60 165 -207 181 -197 6 3 13 -1 16 -10 3
-8 10 -12 16 -9 5 3 10 2 10 -3 0 -8 43 -30 70 -36 3 -1 11 -5 17 -9 20 -13
155 -17 198 -6 22 6 47 11 55 13 39 6 70 19 70 28 0 5 5 6 10 3 14 -8 142 83
134 96 -3 5 -2 8 3 7 4 -2 8 0 8 4 0 4 8 13 19 21 17 13 18 18 7 68 -7 30 -15
61 -18 69 -3 8 -8 31 -10 50 -2 19 -7 39 -11 45 -9 12 -8 85 2 175 3 36 9 85
11 110 3 25 7 65 10 90 3 25 7 65 10 90 2 25 6 59 9 75 3 17 8 62 11 100 3 39
7 88 10 110 3 22 8 60 10 85 3 25 7 61 9 80 3 19 7 62 10 95 4 33 8 76 11 95
7 58 17 152 21 195 2 22 5 58 8 80 2 22 7 65 10 95 4 30 9 71 11 90 2 19 7 64
10 100 4 36 14 94 22 130 9 36 16 72 17 80 1 9 5 20 8 25 7 13 22 88 19 99 -1
5 2 12 6 15 5 3 17 26 28 51 18 42 63 119 76 130 3 3 20 28 39 55 19 28 36 52
39 55 3 3 24 25 46 48 37 40 39 52 5 32z"/>
<path d="M5366 10202 c-4 -7 -14 -11 -22 -8 -8 3 -14 0 -14 -6 0 -6 -3 -8 -7
-5 -3 4 -12 2 -20 -4 -7 -6 -13 -9 -13 -5 0 4 -13 0 -30 -9 -16 -9 -30 -13
-30 -9 0 4 -6 1 -13 -5 -8 -6 -22 -12 -33 -14 -10 -1 -25 -6 -31 -10 -7 -5
-13 -5 -13 0 0 4 -4 2 -9 -6 -5 -7 -20 -13 -35 -13 -14 0 -26 -5 -26 -10 0 -6
-7 -8 -15 -4 -8 3 -15 0 -15 -6 0 -6 -3 -8 -7 -5 -3 4 -12 2 -20 -4 -7 -6 -13
-9 -13 -5 0 4 -14 -1 -30 -9 -17 -9 -35 -13 -40 -10 -6 3 -10 1 -10 -6 0 -7
-3 -9 -7 -6 -3 4 -12 2 -20 -4 -7 -6 -13 -9 -13 -5 0 4 -14 -1 -30 -9 -17 -9
-35 -13 -40 -10 -6 3 -10 1 -10 -6 0 -7 -3 -10 -6 -6 -4 3 -19 0 -35 -9 -16
-8 -29 -12 -29 -9 0 3 -13 -1 -29 -9 -16 -9 -31 -12 -35 -9 -3 4 -6 2 -6 -4 0
-5 -7 -10 -15 -11 -8 -1 -22 -3 -30 -4 -8 -1 -15 -5 -15 -10 0 -5 -4 -7 -9 -4
-5 3 -28 -8 -51 -25 -23 -17 -39 -25 -35 -17 4 7 -6 -1 -21 -18 -16 -18 -47
-49 -69 -70 -22 -20 -34 -34 -27 -30 11 7 11 4 1 -12 -7 -12 -18 -18 -24 -15
-5 4 -7 3 -3 -2 4 -4 -1 -20 -12 -35 -11 -15 -17 -30 -13 -34 3 -3 1 -6 -6 -6
-7 0 -10 -4 -6 -9 3 -5 1 -12 -5 -16 -6 -4 -8 -11 -5 -16 4 -5 2 -9 -3 -9 -5
0 -9 -6 -10 -12 0 -7 -3 -26 -7 -43 -6 -28 -10 -59 -21 -170 -2 -27 -7 -66 -9
-85 -2 -19 -6 -55 -9 -80 -2 -25 -7 -72 -11 -105 -4 -33 -9 -80 -11 -105 -3
-25 -7 -61 -9 -80 -2 -19 -6 -60 -9 -90 -3 -30 -8 -73 -11 -95 -6 -51 -16
-140 -20 -185 -1 -19 -3 -35 -5 -35 -1 0 -3 -20 -5 -45 -4 -55 -14 -153 -21
-200 -2 -19 -6 -55 -8 -80 -6 -76 -17 -173 -23 -210 -12 -80 -1 -216 20 -231
4 -3 9 -16 10 -27 1 -12 5 -22 10 -22 4 0 6 -4 3 -9 -3 -5 1 -11 9 -15 8 -3
15 -14 15 -25 0 -10 11 -26 25 -35 14 -9 25 -21 25 -27 0 -11 45 -59 56 -59 4
0 15 -10 25 -22 11 -11 19 -18 19 -14 0 4 7 1 15 -6 34 -31 43 -36 49 -31 3 4
6 1 6 -5 0 -7 3 -11 8 -11 4 1 9 1 12 -1 3 -1 16 -4 30 -6 13 -2 27 -8 30 -12
8 -10 38 -15 95 -14 45 0 120 8 120 12 0 2 14 5 54 14 12 3 29 10 35 16 7 5
16 7 19 3 4 -3 7 -1 7 5 0 7 7 12 15 12 8 0 15 5 15 11 0 5 5 7 10 4 6 -3 10
-1 10 5 0 6 8 14 17 17 31 12 90 79 87 99 -6 39 -13 69 -15 69 -2 0 -5 18 -13
65 -2 14 -5 25 -6 25 -12 0 -17 160 -7 245 3 25 8 74 12 110 3 36 8 79 10 95
3 17 7 57 10 90 3 33 8 76 11 95 3 19 7 55 9 80 2 25 7 70 10 100 7 57 10 87
19 179 3 30 9 77 12 105 9 76 12 106 18 161 3 28 8 75 11 105 3 30 8 73 10 95
2 22 6 63 9 90 14 117 17 142 21 180 4 50 21 150 25 150 1 0 3 7 5 15 12 54
17 79 22 105 3 17 9 33 15 36 5 3 9 10 8 15 0 5 2 18 6 29 3 11 6 23 5 28 -1
4 4 7 10 7 5 0 7 5 4 10 -3 6 -1 10 5 10 6 0 8 5 5 10 -3 6 -1 10 5 10 6 0 8
5 5 10 -3 6 -1 10 5 10 6 0 9 4 6 8 -3 5 5 20 17 33 12 13 21 27 20 31 -2 4
14 24 35 45 20 20 30 34 22 29 -8 -4 -6 0 4 8 11 9 16 16 11 16 -4 0 4 11 19
25 15 14 26 33 24 43 -3 13 -5 14 -12 4z"/>
<path d="M3650 10059 c-440 -151 -478 -169 -552 -263 -42 -53 -81 -124 -104
-189 -7 -21 -50 -372 -94 -780 -44 -408 -85 -783 -91 -832 -8 -65 -8 -107 0
-150 32 -176 185 -342 365 -397 64 -19 77 -20 155 -10 123 17 227 71 304 159
16 19 16 25 -8 131 -14 61 -25 140 -25 175 0 36 40 436 90 889 99 908 112 988
189 1143 23 44 72 122 110 173 38 50 69 92 68 91 -1 0 -184 -64 -407 -140z"/>
<path d="M7650 7003 c-19 -8 -44 -17 -55 -19 -11 -1 -40 -7 -65 -13 -25 -7
-52 -13 -60 -15 -8 -2 -33 -9 -55 -14 -127 -33 -209 -32 -366 7 -70 17 -134
33 -143 37 -12 4 -16 0 -16 -15 0 -12 -4 -21 -10 -21 -5 0 -10 -5 -10 -12 0
-10 -37 -94 -61 -141 -5 -10 -7 -22 -4 -27 4 -6 1 -10 -5 -10 -6 0 -9 -4 -6
-9 4 -5 2 -11 -2 -13 -10 -3 -83 -178 -82 -192 1 -5 -3 -12 -10 -16 -6 -4 -13
-13 -14 -21 -2 -8 -13 -36 -25 -64 -41 -89 -45 -100 -46 -111 0 -6 -5 -18 -11
-25 -5 -8 -30 -61 -54 -119 -24 -58 -56 -134 -73 -170 -16 -35 -30 -69 -31
-75 -1 -5 -16 -41 -34 -78 -18 -38 -32 -70 -32 -73 0 -2 -9 -26 -21 -52 -12
-26 -25 -56 -30 -67 -4 -11 -24 -55 -43 -97 -19 -42 -36 -85 -38 -95 -2 -10
-9 -24 -16 -32 -7 -7 -11 -20 -8 -27 3 -8 1 -14 -4 -14 -5 0 -12 -10 -16 -22
-4 -13 -17 -45 -29 -73 -36 -77 -127 -289 -129 -300 -2 -5 -13 -32 -26 -60
-12 -27 -31 -70 -42 -95 -10 -25 -23 -53 -29 -63 -5 -10 -7 -22 -4 -27 4 -6 2
-10 -4 -10 -9 0 -33 -59 -28 -71 1 -3 -6 -14 -16 -24 -10 -9 -16 -24 -13 -31
3 -8 2 -14 -2 -14 -9 0 -88 -181 -84 -192 1 -5 -2 -8 -8 -8 -6 0 -9 -3 -8 -7
1 -5 -6 -27 -16 -50 -10 -23 -17 -45 -16 -49 1 -4 -2 -10 -7 -13 -14 -9 -62
-128 -56 -135 4 -3 1 -6 -5 -6 -7 0 -12 -5 -12 -11 0 -5 -9 -30 -21 -55 -11
-25 -22 -58 -24 -74 -2 -16 -7 -34 -10 -40 -4 -6 -8 -49 -10 -95 -3 -81 12
-186 36 -250 26 -67 34 -85 41 -85 5 0 7 -3 6 -7 -3 -13 43 -83 55 -83 6 0 7
-3 4 -7 -10 -10 14 -34 27 -26 6 3 8 3 4 -2 -12 -13 59 -74 129 -113 35 -19
48 -21 83 -13 22 5 66 7 98 5 213 -14 230 -14 307 2 44 8 83 20 86 26 3 5 8 9
10 7 7 -4 49 12 49 19 0 4 -7 17 -15 28 -8 12 -11 24 -8 28 3 3 1 6 -6 6 -7 0
-10 4 -7 8 3 5 1 26 -5 47 -11 40 -17 64 -25 105 -3 14 -9 39 -14 55 -20 66
-31 146 -30 216 0 67 6 144 10 144 2 0 8 28 15 65 2 14 11 50 20 81 8 31 16
69 17 83 1 14 5 26 9 26 4 0 9 12 12 28 3 15 14 45 23 67 27 60 37 91 34 101
-1 3 6 11 14 17 9 7 17 21 19 32 2 11 15 45 29 75 14 30 38 84 53 120 15 36
32 76 38 90 6 14 11 27 12 30 1 3 11 27 23 53 52 115 81 183 84 197 2 8 9 21
16 28 7 8 10 18 7 23 -4 5 -1 9 5 9 6 0 10 6 9 13 -2 6 12 44 31 82 18 39 33
76 33 83 0 6 4 12 9 12 4 0 7 3 6 8 -1 4 3 17 10 28 6 12 8 24 5 28 -3 3 -1 6
5 6 10 0 28 56 24 73 -2 5 2 6 8 2 9 -5 15 15 11 38 0 4 3 7 7 7 9 0 62 127
61 144 0 5 3 12 8 15 14 10 44 82 38 92 -4 5 -2 9 4 9 10 0 27 38 23 53 -1 4
3 7 10 7 6 0 9 3 5 6 -3 3 3 22 14 41 11 19 17 38 14 44 -4 5 -2 9 4 9 9 0 37
68 33 83 -1 4 3 7 8 7 6 0 10 9 10 19 0 11 4 21 10 23 5 2 11 15 12 30 1 15 4
25 7 23 7 -8 41 76 35 86 -3 5 -1 9 4 9 8 0 15 13 26 50 1 3 5 11 9 18 5 6 5
12 2 12 -4 0 1 7 10 16 9 9 14 22 11 30 -3 7 -1 14 4 16 5 2 10 10 12 18 2 8
5 17 8 20 13 13 40 82 35 91 -4 5 -3 9 2 9 4 0 14 15 22 33 7 17 19 45 26 62
8 16 11 34 8 40 -4 5 -2 7 2 3 10 -9 67 121 59 133 -3 5 -1 9 4 9 11 0 35 50
28 58 -3 2 3 16 14 30 11 13 17 28 14 33 -3 5 0 9 6 9 7 0 10 6 7 14 -3 8 -2
16 2 18 7 2 54 99 48 98 -1 -1 -18 -8 -37 -17z"/>
<path d="M6307 6994 c-15 -8 -32 -12 -37 -9 -6 3 -10 2 -10 -2 0 -5 -8 -9 -17
-10 -10 -1 -31 -4 -48 -8 -16 -4 -38 -8 -47 -9 -10 0 -18 -3 -18 -6 0 -4 -6
-7 -12 -8 -7 0 -24 -3 -38 -7 -45 -11 -104 -17 -170 -18 -61 0 -78 2 -155 18
-55 12 -60 13 -65 15 -3 1 -9 3 -15 5 -5 1 -12 3 -15 4 -32 15 -104 16 -95 2
3 -5 1 -12 -5 -16 -6 -4 -8 -11 -5 -16 4 -5 1 -9 -5 -9 -6 0 -8 -4 -5 -10 3
-5 1 -10 -5 -10 -6 0 -9 -4 -5 -9 3 -5 1 -12 -5 -16 -6 -4 -8 -11 -5 -16 4 -5
1 -9 -5 -9 -6 0 -8 -4 -5 -10 3 -5 1 -10 -6 -10 -7 0 -10 -3 -6 -6 3 -4 -1
-21 -10 -38 -10 -17 -18 -34 -19 -38 -1 -5 -3 -11 -4 -15 -1 -5 -2 -11 -1 -15
0 -5 -4 -8 -10 -8 -5 0 -7 -4 -4 -10 3 -5 1 -10 -6 -10 -7 0 -10 -3 -6 -6 3
-4 -4 -25 -15 -48 -12 -22 -21 -47 -20 -53 2 -7 -2 -13 -8 -13 -6 0 -8 -4 -5
-10 3 -5 1 -10 -5 -10 -6 0 -9 -4 -5 -9 3 -5 1 -12 -5 -16 -6 -4 -8 -11 -5
-16 4 -5 1 -9 -5 -9 -6 0 -8 -4 -5 -10 3 -5 1 -10 -5 -10 -6 0 -9 -4 -5 -9 3
-5 1 -12 -5 -16 -6 -4 -8 -11 -5 -16 4 -5 1 -9 -4 -9 -6 0 -11 -9 -11 -19 0
-11 -5 -23 -10 -26 -6 -4 -8 -11 -5 -16 4 -5 1 -9 -5 -9 -6 0 -8 -4 -5 -10 3
-5 1 -10 -6 -10 -7 0 -9 -3 -6 -6 3 -4 1 -16 -5 -28 -7 -11 -11 -24 -10 -28 1
-5 -3 -8 -8 -8 -5 0 -9 -3 -8 -7 3 -13 -25 -83 -34 -83 -4 0 -4 -7 -1 -17 4
-11 3 -14 -5 -9 -8 5 -10 2 -6 -8 3 -9 1 -16 -5 -16 -6 0 -10 -3 -10 -7 1 -5
0 -11 -1 -15 -4 -13 -7 -27 -9 -39 0 -5 -6 -7 -12 -4 -6 4 -9 1 -8 -6 2 -8 -7
-36 -19 -63 -12 -27 -22 -50 -22 -52 0 -6 -40 -95 -56 -125 -7 -14 -11 -29 -7
-33 3 -3 1 -6 -6 -6 -7 0 -10 -4 -6 -9 3 -5 -2 -16 -10 -25 -9 -8 -15 -17 -15
-18 4 -9 -14 -58 -21 -58 -5 0 -6 -7 -3 -15 4 -8 1 -15 -6 -15 -6 0 -8 -4 -5
-10 3 -5 1 -10 -5 -10 -6 0 -9 -4 -5 -9 3 -5 1 -12 -5 -16 -6 -4 -8 -11 -5
-16 4 -5 1 -9 -5 -9 -6 0 -9 -4 -5 -9 3 -5 -2 -16 -11 -25 -8 -9 -12 -21 -8
-27 5 -8 3 -9 -6 -4 -10 6 -12 4 -7 -8 3 -9 2 -19 -3 -22 -6 -4 -10 -15 -10
-26 0 -13 -4 -18 -12 -13 -7 4 -8 3 -4 -4 4 -6 -1 -23 -10 -37 -9 -14 -13 -25
-9 -25 3 0 -2 -12 -13 -27 -10 -16 -17 -34 -15 -40 3 -7 0 -13 -6 -13 -6 0
-11 -3 -10 -7 2 -16 -14 -53 -23 -53 -6 0 -8 -6 -5 -14 3 -8 -5 -31 -19 -51
-13 -20 -19 -33 -13 -30 13 8 -12 -37 -26 -47 -5 -4 -6 -10 -2 -14 4 -4 0 -16
-10 -26 -9 -10 -13 -18 -9 -18 3 0 -5 -22 -19 -50 -14 -27 -22 -50 -19 -50 4
0 0 -7 -7 -16 -7 -9 -14 -21 -15 -28 -5 -22 -49 -121 -57 -124 -4 -2 -5 -8 -1
-13 3 -5 1 -9 -3 -9 -5 0 -9 -10 -10 -22 -1 -11 -7 -24 -13 -28 -6 -4 -12 -17
-13 -28 -1 -12 -5 -22 -10 -22 -4 0 -5 -4 -2 -10 3 -5 1 -10 -5 -10 -6 0 -8
-4 -5 -10 3 -5 2 -10 -4 -10 -6 0 -8 -7 -5 -15 4 -8 1 -15 -6 -15 -6 0 -8 -4
-5 -10 3 -5 1 -10 -5 -10 -6 0 -9 -4 -5 -9 3 -5 1 -12 -5 -16 -6 -4 -8 -11 -5
-16 4 -5 1 -9 -4 -9 -6 0 -10 -3 -9 -7 1 -5 -3 -18 -10 -30 -7 -13 -10 -23 -7
-23 2 0 -4 -15 -15 -32 -11 -18 -20 -41 -20 -50 0 -10 -5 -18 -10 -18 -6 0 -9
-3 -8 -7 2 -9 -16 -52 -39 -95 -8 -16 -11 -28 -8 -28 4 0 -2 -12 -13 -27 -10
-16 -17 -34 -15 -40 3 -7 0 -13 -5 -13 -8 0 -13 -11 -27 -62 -2 -5 -4 -10 -5
-13 -1 -3 -4 -9 -5 -15 -1 -5 -3 -11 -5 -12 -1 -2 -3 -12 -5 -23 -3 -11 -7
-33 -10 -50 -11 -59 -6 -210 9 -233 4 -7 5 -16 2 -19 -3 -3 1 -18 10 -34 8
-16 12 -29 9 -29 -3 0 2 -15 12 -32 9 -18 16 -36 15 -40 -1 -5 3 -8 9 -8 5 0
7 -4 4 -10 -3 -5 -1 -10 5 -10 6 0 8 -5 5 -10 -3 -6 1 -13 9 -16 9 -3 14 -10
11 -14 -3 -4 2 -10 10 -14 8 -3 15 -10 15 -16 0 -6 15 -25 33 -42 17 -17 26
-27 18 -23 -9 5 -12 4 -7 -3 4 -7 12 -12 18 -12 6 0 19 -10 29 -22 11 -11 19
-17 19 -12 0 5 10 -2 21 -16 11 -14 17 -18 13 -10 -6 12 -4 12 12 -1 35 -30
64 -41 78 -30 8 7 52 9 117 6 199 -9 269 -10 269 -3 0 3 8 5 17 4 9 -2 40 6
68 17 27 10 55 19 62 20 19 1 23 36 5 47 -10 5 -13 10 -9 10 4 0 3 8 -2 18 -6
11 -12 30 -15 43 -6 28 -16 78 -21 99 -2 8 -4 15 -6 15 -1 0 -3 9 -5 20 -1 11
-6 31 -9 45 -4 14 -7 35 -8 48 -1 12 -4 22 -8 22 -19 0 -15 238 6 320 3 14 9
41 12 60 3 19 8 37 12 40 4 3 8 14 8 25 1 20 10 60 13 60 2 0 9 37 12 63 1 6
5 12 10 12 5 0 7 4 3 9 -3 5 -1 12 5 16 6 4 8 11 5 16 -4 5 -1 9 5 9 6 0 8 4
5 10 -3 6 -2 10 4 10 6 0 8 7 5 15 -4 8 -1 15 6 15 6 0 8 5 5 10 -3 6 -1 10 5
10 6 0 9 4 5 9 -3 5 -1 12 5 16 6 4 8 11 5 16 -4 5 -1 9 5 9 6 0 8 5 5 10 -3
6 -1 10 6 10 7 0 9 3 6 7 -4 3 1 15 10 26 10 11 12 17 5 13 -7 -4 -4 7 7 25
11 18 18 36 15 41 -3 4 0 8 5 8 6 0 10 3 9 8 -1 4 3 17 10 28 6 12 8 24 5 28
-3 3 -1 6 5 6 7 0 12 7 12 15 0 9 7 27 16 40 9 14 13 25 9 25 -3 0 2 12 13 28
10 15 17 33 15 40 -3 6 0 12 6 12 6 0 10 3 10 8 -3 19 2 33 10 28 5 -4 8 2 7
11 -2 10 8 35 21 57 14 21 20 35 14 32 -16 -10 -13 0 5 18 8 9 16 25 17 36 1
11 5 20 10 20 4 0 6 4 2 9 -3 5 0 15 7 23 7 7 15 22 16 33 2 11 7 22 12 25 4
3 11 19 14 37 4 17 13 37 21 43 8 6 11 19 8 27 -4 11 -2 14 5 9 8 -5 10 -2 6
8 -3 9 -1 16 5 16 6 0 11 9 11 20 0 11 5 20 11 20 6 0 9 6 6 14 -3 7 1 23 8
34 8 10 11 22 8 26 -3 3 -1 6 6 6 7 0 9 5 6 10 -3 6 -1 10 4 10 6 0 11 8 11
18 0 10 5 23 12 30 7 7 8 12 3 12 -4 0 0 9 10 20 10 11 14 20 10 20 -4 0 0 10
11 22 10 12 13 18 7 14 -9 -5 -11 -2 -7 8 3 9 11 16 17 16 6 0 7 3 4 7 -4 3 1
15 10 26 10 11 12 17 6 13 -9 -5 -11 -2 -7 8 3 9 11 16 17 16 6 0 7 3 4 7 -4
3 1 15 10 26 10 11 12 17 6 13 -9 -5 -11 -2 -7 8 3 9 10 16 16 16 5 0 7 4 3 9
-3 5 -1 12 5 16 6 4 8 11 5 16 -4 5 -1 9 5 9 6 0 8 5 5 10 -3 6 -1 10 6 10 7
0 10 3 6 6 -3 4 4 25 16 48 12 22 22 50 23 61 1 10 7 21 13 23 6 2 9 8 5 13
-3 5 -1 9 5 9 6 0 8 7 5 15 -4 8 -1 15 5 15 6 0 11 9 11 19 0 11 5 23 10 26 6
4 8 11 5 16 -4 5 -1 9 4 9 6 0 10 3 9 8 -1 4 4 18 12 32 7 14 13 26 12 28 -6
8 -1 22 6 18 5 -3 9 1 10 9 1 8 3 22 4 30 1 8 5 15 10 15 5 0 6 5 3 10 -3 6
-1 10 5 10 6 0 8 5 5 10 -3 6 -1 10 5 10 6 0 9 4 5 10 -6 10 13 50 30 62 6 4
7 8 2 8 -4 0 2 19 14 43 12 23 21 42 19 42 -2 0 3 11 10 25 8 14 13 28 12 33
-1 4 3 7 9 7 5 0 8 4 5 9 -6 10 16 61 26 61 4 0 5 7 2 15 -4 8 -1 15 5 15 6 0
10 3 9 8 -1 4 3 17 10 28 6 12 8 24 5 28 -3 3 -1 6 6 6 7 0 9 5 6 10 -3 6 -1
10 6 10 7 0 9 3 6 7 -4 3 1 15 10 26 10 11 12 17 6 13 -18 -10 -16 -1 3 18 8
9 16 25 17 36 1 11 5 20 10 20 4 0 5 5 2 10 -3 6 -1 10 5 10 6 0 8 5 5 10 -3
6 -2 10 2 10 5 0 9 10 10 22 1 11 8 25 15 29 7 5 9 9 4 9 -5 0 -3 6 3 13 6 8
8 17 4 20 -3 4 -1 7 6 7 7 0 10 4 6 9 -3 5 3 17 12 27 10 10 16 18 14 18 -2 1
-1 11 3 24 10 31 6 33 -27 16z"/>
<path d="M4984 6990 c-6 -6 -77 -26 -160 -45 -189 -44 -263 -45 -434 -6 -69
16 -128 26 -131 23 -17 -18 -1258 -2924 -1268 -2967 -20 -96 -23 -143 -11
-221 30 -194 133 -357 283 -443 44 -26 51 -27 99 -18 36 7 81 7 159 -3 63 -7
132 -9 165 -5 69 8 184 42 184 54 0 5 -7 27 -15 50 -8 23 -31 115 -51 204 -33
147 -36 172 -31 272 8 184 56 357 181 647 57 134 314 731 571 1328 257 597
471 1095 476 1107 9 24 -2 38 -17 23z"/>
<path d="M9171 4757 c-8 -18 -30 -66 -48 -107 -19 -41 -35 -83 -36 -92 -1 -10
-4 -18 -8 -18 -6 0 -24 -39 -33 -70 -1 -3 -14 -31 -29 -64 -15 -32 -29 -63
-30 -70 -1 -6 -4 -13 -7 -16 -10 -9 -43 -90 -43 -105 0 -8 -4 -12 -9 -9 -4 3
-8 1 -8 -5 0 -5 -5 -22 -12 -38 -6 -15 -10 -35 -9 -43 2 -8 -1 -12 -5 -7 -10
10 -36 -52 -27 -66 3 -6 1 -7 -5 -3 -7 4 -12 1 -12 -8 0 -9 5 -16 11 -16 5 0
7 -5 3 -12 -4 -6 0 -16 8 -22 8 -6 16 -15 17 -21 4 -26 13 -45 22 -45 5 0 8
-3 7 -7 -1 -5 9 -28 21 -53 64 -122 94 -176 103 -187 6 -7 7 -13 2 -13 -5 0
-4 -4 2 -8 6 -4 21 -33 34 -64 13 -31 27 -55 32 -52 4 3 6 -1 3 -8 -3 -7 9
-28 25 -47 17 -18 38 -44 47 -57 8 -13 19 -22 23 -19 5 3 11 -4 15 -15 3 -11
9 -20 13 -20 4 0 20 -11 35 -25 15 -14 27 -23 27 -20 0 4 8 -1 18 -11 21 -22
142 -78 200 -94 65 -17 167 -18 234 -3 76 17 171 53 180 67 4 6 8 7 8 3 0 -4
8 -3 19 2 13 7 17 18 14 36 -3 14 -10 25 -16 25 -6 0 -7 3 -4 6 7 7 -42 107
-56 112 -4 2 -5 8 -1 13 3 5 0 9 -7 9 -7 0 -9 3 -6 7 4 3 -2 20 -12 37 -24 40
-99 179 -124 231 -11 22 -22 42 -26 45 -3 3 -21 34 -39 70 -66 130 -97 185
-107 192 -7 5 -7 8 0 8 6 0 3 6 -6 13 -9 7 -16 14 -16 17 -2 15 -48 100 -56
100 -4 0 -6 4 -3 9 3 5 -2 19 -12 32 -9 13 -26 41 -36 62 -11 20 -24 37 -29
37 -6 0 -7 3 -4 6 4 4 -6 30 -22 58 -15 28 -45 83 -66 121 -21 39 -48 86 -59
105 -12 19 -30 52 -41 73 -11 20 -23 37 -28 37 -4 0 -6 4 -3 8 2 4 1 13 -2 19
-5 8 -13 0 -21 -20z"/>
<path d="M8585 3420 c-3 -5 -3 -10 2 -10 4 0 0 -5 -9 -11 -10 -5 -15 -16 -12
-24 4 -8 1 -15 -6 -15 -6 0 -8 -4 -5 -10 3 -5 1 -10 -5 -10 -6 0 -8 -5 -5 -10
3 -6 -1 -13 -9 -16 -9 -3 -14 -10 -11 -14 3 -4 -2 -11 -11 -14 -8 -3 -13 -10
-9 -15 3 -6 -3 -14 -12 -20 -15 -9 -14 -10 10 -9 15 1 27 6 27 11 0 5 7 7 15
3 8 -3 15 -1 15 5 0 6 5 7 10 4 6 -3 10 -1 10 5 0 6 4 9 9 5 5 -3 12 -1 16 5
4 6 11 8 16 5 5 -4 9 -1 9 4 0 6 8 11 17 11 15 0 14 2 -3 15 -10 8 -15 15 -10
15 5 0 3 7 -4 15 -6 8 -9 19 -5 25 3 5 -1 13 -9 16 -9 3 -13 10 -10 15 3 5 0
9 -6 9 -6 0 -8 5 -5 10 3 6 4 10 1 10 -3 0 -8 -4 -11 -10z"/>
</g>
</svg>
